<svg xmlns="http://www.w3.org/2000/svg" width="1200" height="760" viewBox="0 0 1200 760" role="img" aria-labelledby="title desc">
  <title id="title">S2 Autonomous Remediation Runtime</title>
  <desc id="desc">Runtime flow for injecting a failure, detecting the alert, investigating evidence, and remediating orders-api.</desc>
  <defs>
    <marker id="arrow" viewBox="0 0 10 10" refX="9" refY="5" markerWidth="8" markerHeight="8" orient="auto-start-reverse">
      <path d="M 0 0 L 10 5 L 0 10 z" fill="#1e1e1e"/>
    </marker>
    <style>
      text { font-family: Inter, Arial, sans-serif; fill: #1e1e1e; }
      .label { font-size: 16px; font-weight: 600; }
      .small { font-size: 14px; fill: #555; }
      .box { stroke-width: 2; rx: 14; ry: 14; }
      .line { stroke: #1e1e1e; stroke-width: 2; fill: none; marker-end: url(#arrow); }
    </style>
  </defs>
  <rect width="1200" height="760" fill="#fff"/>
  <rect x="40" y="50" width="1040" height="650" rx="18" fill="#dbe4ff" stroke="#4a9eed" opacity=".45"/>
  <text x="70" y="85" class="label" fill="#4a9eed">Already deployed sbox environment</text>

  <rect class="box" x="80" y="175" width="190" height="85" fill="#a5d8ff" stroke="#4a9eed"/>
  <text x="175" y="207" text-anchor="middle" class="label">Operator</text>
  <text x="175" y="229" text-anchor="middle" class="label">curl failure injection</text>

  <rect class="box" x="365" y="160" width="220" height="100" fill="#ffd8a8" stroke="#f59e0b"/>
  <text x="475" y="195" text-anchor="middle" class="label">orders-api</text>
  <text x="475" y="218" text-anchor="middle" class="label">runtime 5xx spike</text>
  <text x="475" y="240" text-anchor="middle" class="small">no redeploy required</text>

  <rect class="box" x="680" y="170" width="220" height="85" fill="#ffc9c9" stroke="#ef4444"/>
  <text x="790" y="203" text-anchor="middle" class="label">Azure Monitor alert</text>
  <text x="790" y="226" text-anchor="middle" class="label">Orders API 5xx</text>

  <rect class="box" x="660" y="330" width="245" height="105" fill="#d0bfff" stroke="#8b5cf6"/>
  <text x="782" y="365" text-anchor="middle" class="label">Azure SRE Agent</text>
  <text x="782" y="388" text-anchor="middle" class="label">triage + remediation plan</text>
  <text x="782" y="411" text-anchor="middle" class="small">Review or Automatic mode</text>

  <rect class="box" x="350" y="335" width="210" height="90" fill="#eebefa" stroke="#ec4899"/>
  <text x="455" y="368" text-anchor="middle" class="label">Log Analytics</text>
  <text x="455" y="391" text-anchor="middle" class="label">App Insights</text>

  <rect class="box" x="80" y="345" width="210" height="90" fill="#fff3bf" stroke="#f59e0b"/>
  <text x="185" y="378" text-anchor="middle" class="label">change-lookup</text>
  <text x="185" y="401" text-anchor="middle" class="label">ServiceNow CR proxy</text>

  <rect class="box" x="365" y="520" width="220" height="90" fill="#b2f2bb" stroke="#22c55e"/>
  <text x="475" y="552" text-anchor="middle" class="label">Remediation action</text>
  <text x="475" y="575" text-anchor="middle" class="label">reset or rollback</text>

  <rect class="box" x="680" y="540" width="250" height="80" fill="#c3fae8" stroke="#06b6d4"/>
  <text x="805" y="572" text-anchor="middle" class="label">Incident summary</text>
  <text x="805" y="594" text-anchor="middle" class="label">health recheck + memory</text>

  <path class="line" d="M270 218 H365"/>
  <text x="318" y="205" text-anchor="middle" class="small">injects</text>
  <path class="line" d="M585 212 H680"/>
  <text x="632" y="199" text-anchor="middle" class="small">metrics</text>
  <path class="line" d="M790 255 V330"/>
  <text x="808" y="297" class="small">routes</text>
  <path class="line" d="M660 382 H560"/>
  <text x="610" y="370" text-anchor="middle" class="small">queries</text>
  <path class="line" d="M660 405 H290"/>
  <text x="475" y="449" text-anchor="middle" class="small">checks approved CR</text>
  <path class="line" d="M660 420 H620 V565 H585"/>
  <text x="620" y="525" class="small">acts</text>
  <path class="line" d="M475 520 V260"/>
  <text x="493" y="488" class="small">restores</text>
  <path class="line" d="M782 435 V540"/>
  <text x="800" y="492" class="small">records</text>
</svg>
